<?xml version="1.0" encoding="UTF-8" standalone="no"?>
<svg
   xmlns:dc="http://purl.org/dc/elements/1.1/"
   xmlns:cc="http://creativecommons.org/ns#"
   xmlns:rdf="http://www.w3.org/1999/02/22-rdf-syntax-ns#"
   xmlns:svg="http://www.w3.org/2000/svg"
   xmlns="http://www.w3.org/2000/svg"
   width="201.17395mm"
   height="201.17397mm"
   viewBox="0 0 201.17395 201.17397"
   version="1.1"
   id="svg8">
  <style
     id="style64" />
  <defs
     id="defs2" />
  <metadata
     id="metadata5">
    <rdf:RDF>
      <cc:Work
         rdf:about="">
        <dc:format>image/svg+xml</dc:format>
        <dc:type
           rdf:resource="http://purl.org/dc/dcmitype/StillImage" />
        <dc:title></dc:title>
      </cc:Work>
    </rdf:RDF>
  </metadata>
  <g
     id="layer1"
     style="display:inline"
     transform="translate(-4.413024,-47.913018)">
    <g
       id="g350">
      <path
         d="m 104.94497,63.015552 a 80.381627,80.381627 0 0 0 -80.326367,80.381658 80.381627,80.381627 0 0 0 80.381137,80.38165 80.381627,80.381627 0 0 0 80.38166,-80.38165 80.381627,80.381627 0 0 0 -2.15543,-18.49035 18.79493,22.431106 47.674207 0 1 -6.26163,-4.22816 18.79493,22.431106 47.674207 0 1 -3.42149,-5.94538 23.352749,28.495233 47.674207 0 1 -17.8785,-6.55102 23.352749,28.495233 47.674207 0 1 -4.55631,-19.923328 18.987931,22.069224 47.674207 0 1 -8.46564,-5.00021 18.987931,22.069224 47.674207 0 1 -4.37544,-13.035897 80.381627,80.381627 0 0 0 -33.26722,-7.207313 80.381627,80.381627 0 0 0 -0.0548,0 z m -0.008,40.190828 a 40.190814,40.190814 0 0 1 0.063,0 40.190814,40.190814 0 0 1 40.19083,40.19083 40.190814,40.190814 0 0 1 -40.19083,40.19082 40.190814,40.190814 0 0 1 -40.191055,-40.19082 40.190814,40.190814 0 0 1 40.127785,-40.19083 z"
         style="fill:#ffb380;stroke-width:0.270515"
         id="path10" />
      <path
         d="m 104.93773,57.913023 a 90.586974,90.586974 0 0 0 -90.524706,90.586717 90.586974,90.586974 0 0 0 90.586716,90.58724 90.586974,90.586974 0 0 0 90.58724,-90.58724 90.586974,90.586974 0 0 0 -1.77302,-17.83199 20.481992,24.444556 46.079726 0 1 -16.29462,-5.36401 20.481992,24.444556 46.079726 0 1 -3.90777,-6.37274 25.448929,31.05301 46.079726 0 1 -19.67476,-6.59443 25.448929,31.05301 46.079726 0 1 -5.56711,-21.565088 20.692318,24.050194 46.079726 0 1 -9.37358,-5.18987 20.692318,24.050194 46.079726 0 1 -3.35536,-22.328348 90.586974,90.586974 0 0 0 -30.64102,-5.340241 90.586974,90.586974 0 0 0 -0.062,0 z m -0.0568,45.293357 a 45.293488,45.293488 0 0 1 0.11885,0 45.293488,45.293488 0 0 1 45.29336,45.29336 45.293488,45.293488 0 0 1 -45.29336,45.29387 45.293488,45.293488 0 0 1 -45.293357,-45.29387 45.293488,45.293488 0 0 1 45.174507,-45.29336 z"
         style="fill:#502d16;stroke-width:0.304858"
         id="path84" />
      <rect
         transform="rotate(-37.495124)"
         style="opacity:1;fill:#ffff00;stroke-width:0.0380094"
         id="rect288"
         width="27.365477"
         height="5.9490185"
         x="-23.606321"
         y="244.56006"
         ry="2.8870237" />
      <rect
         transform="rotate(43.597412)"
         ry="2.8870237"
         y="90.381294"
         x="198.27948"
         height="5.9490185"
         width="27.365477"
         id="rect290"
         style="opacity:1;fill:#0000ff;stroke-width:0.0380094" />
      <rect
         transform="rotate(40.461813)"
         style="opacity:1;fill:#800080;stroke-width:0.0380094"
         id="rect292"
         width="27.365477"
         height="5.9490185"
         x="112.60479"
         y="92.784889"
         ry="2.8870237" />
      <rect
         transform="rotate(-75.783672)"
         ry="2.8870237"
         y="96.272705"
         x="-184.11304"
         height="5.9490185"
         width="27.365477"
         id="rect294"
         style="opacity:1;fill:#ff0000;stroke-width:0.0380094" />
      <rect
         transform="rotate(162.94799)"
         style="opacity:1;fill:#ff0000;stroke-width:0.0380094"
         id="rect296"
         width="27.365477"
         height="5.9490185"
         x="-19.943964"
         y="-130.3513"
         ry="2.8870237" />
      <rect
         transform="rotate(53.719088)"
         ry="2.8870237"
         y="-41.059402"
         x="116.76538"
         height="5.9490185"
         width="27.365477"
         id="rect298"
         style="opacity:1;fill:#ff0000;stroke-width:0.0380094" />
      <rect
         transform="rotate(80.608018)"
         style="opacity:1;fill:#800080;stroke-width:0.0380094"
         id="rect302"
         width="27.365477"
         height="5.9490185"
         x="172.02318"
         y="-139.98409"
         ry="2.8870237" />
      <rect
         transform="rotate(25.794162)"
         style="opacity:1;fill:#0000ff;stroke-width:0.0380094"
         id="rect304"
         width="27.365477"
         height="5.9490185"
         x="86.824242"
         y="46.692249"
         ry="2.8870237" />
      <rect
         transform="rotate(47.615565)"
         ry="2.8870234"
         y="30.967022"
         x="103.75431"
         height="5.9490185"
         width="11.490478"
         id="rect308"
         style="opacity:1;fill:#ffff00;stroke-width:0.0246297" />
      <rect
         ry="2.8870234"
         y="139.86617"
         x="171.4713"
         height="5.9490185"
         width="11.490478"
         id="rect310"
         style="opacity:1;fill:#ff0000;stroke-width:0.0246297" />
      <rect
         transform="rotate(80.316599)"
         ry="2.8870234"
         y="-80.056847"
         x="222.24834"
         height="5.9490185"
         width="11.490478"
         id="rect312"
         style="opacity:1;fill:#ff0000;stroke-width:0.0246297" />
      <rect
         ry="2.8870234"
         y="137.19002"
         x="34.457981"
         height="5.9490185"
         width="11.490478"
         id="rect314"
         style="opacity:1;fill:#0000ff;stroke-width:0.0246297" />
      <rect
         transform="rotate(-139.02118)"
         ry="2.8870234"
         y="-116.0424"
         x="-152.54225"
         height="5.9490185"
         width="11.490478"
         id="rect316"
         style="opacity:1;fill:#800080;stroke-width:0.0246297" />
    </g>
  </g>
</svg>
